<svg width="36" height="36" viewBox="0 0 36 36" fill="none" xmlns="http://www.w3.org/2000/svg">
<rect width="36" height="36" rx="18" fill="#021708"/>
<path d="M20.16 11.332H17.564C16.388 11.332 15.456 11.332 14.7273 11.4307C13.9767 11.532 13.3693 11.7454 12.8907 12.226C12.4113 12.7067 12.1987 13.3167 12.098 14.07C12 14.802 12 15.7374 12 16.918V20.81C12 21.8154 12.6133 22.6767 13.4847 23.038C13.44 22.4314 13.44 21.5814 13.44 20.8734V17.5334C13.44 16.6794 13.44 15.9427 13.5187 15.3534C13.6033 14.7214 13.794 14.116 14.2833 13.6247C14.7727 13.1334 15.376 12.942 16.0053 12.8567C16.592 12.778 17.3253 12.778 18.1767 12.778H20.2233C21.074 12.778 21.806 12.778 22.3933 12.8567C22.2173 12.4076 21.9101 12.022 21.5118 11.75C21.1134 11.478 20.6423 11.3324 20.16 11.332Z" fill="white"/>
<path d="M14.4004 17.5975C14.4004 15.7802 14.4004 14.8715 14.9631 14.3069C15.5251 13.7422 16.4297 13.7422 18.2404 13.7422H20.1604C21.9704 13.7422 22.8757 13.7422 23.4384 14.3069C24.0004 14.8715 24.0004 15.7802 24.0004 17.5975V20.8109C24.0004 22.6282 24.0004 23.5369 23.4384 24.1015C22.8757 24.6662 21.9704 24.6662 20.1604 24.6662H18.2404C16.4304 24.6662 15.5251 24.6662 14.9631 24.1015C14.4004 23.5369 14.4004 22.6282 14.4004 20.8109V17.5975Z" fill="white"/>
</svg>
