<svg width="36" height="36" viewBox="0 0 36 36" fill="none" xmlns="http://www.w3.org/2000/svg">
<g clip-path="url(#clip0_78_3167)">
<path d="M28.5 3H7.5C5.51161 3.00238 3.60534 3.79332 2.19933 5.19933C0.793323 6.60534 0.00238179 8.51161 0 10.5L0 25.5C0.00238179 27.4884 0.793323 29.3947 2.19933 30.8007C3.60534 32.2067 5.51161 32.9976 7.5 33H28.5C30.4884 32.9976 32.3947 32.2067 33.8007 30.8007C35.2067 29.3947 35.9976 27.4884 36 25.5V10.5C35.9976 8.51161 35.2067 6.60534 33.8007 5.19933C32.3947 3.79332 30.4884 3.00238 28.5 3ZM7.5 16.5H10.5C10.8978 16.5 11.2794 16.658 11.5607 16.9393C11.842 17.2206 12 17.6022 12 18C12 18.3978 11.842 18.7794 11.5607 19.0607C11.2794 19.342 10.8978 19.5 10.5 19.5H7.5C7.10218 19.5 6.72064 19.342 6.43934 19.0607C6.15804 18.7794 6 18.3978 6 18C6 17.6022 6.15804 17.2206 6.43934 16.9393C6.72064 16.658 7.10218 16.5 7.5 16.5ZM19.5 27H7.5C7.10218 27 6.72064 26.842 6.43934 26.5607C6.15804 26.2794 6 25.8978 6 25.5C6 25.1022 6.15804 24.7206 6.43934 24.4393C6.72064 24.158 7.10218 24 7.5 24H19.5C19.8978 24 20.2794 24.158 20.5607 24.4393C20.842 24.7206 21 25.1022 21 25.5C21 25.8978 20.842 26.2794 20.5607 26.5607C20.2794 26.842 19.8978 27 19.5 27ZM28.5 27H25.5C25.1022 27 24.7206 26.842 24.4393 26.5607C24.158 26.2794 24 25.8978 24 25.5C24 25.1022 24.158 24.7206 24.4393 24.4393C24.7206 24.158 25.1022 24 25.5 24H28.5C28.8978 24 29.2794 24.158 29.5607 24.4393C29.842 24.7206 30 25.1022 30 25.5C30 25.8978 29.842 26.2794 29.5607 26.5607C29.2794 26.842 28.8978 27 28.5 27ZM28.5 19.5H16.5C16.1022 19.5 15.7206 19.342 15.4393 19.0607C15.158 18.7794 15 18.3978 15 18C15 17.6022 15.158 17.2206 15.4393 16.9393C15.7206 16.658 16.1022 16.5 16.5 16.5H28.5C28.8978 16.5 29.2794 16.658 29.5607 16.9393C29.842 17.2206 30 17.6022 30 18C30 18.3978 29.842 18.7794 29.5607 19.0607C29.2794 19.342 28.8978 19.5 28.5 19.5Z" fill="#021708"/>
</g>
<defs>
<clipPath id="clip0_78_3167">
<rect width="36" height="36" fill="white"/>
</clipPath>
</defs>
</svg>
